<mxfile host="Electron" agent="Mozilla/5.0 (Windows NT 10.0; Win64; x64) AppleWebKit/537.36 (KHTML, like Gecko) draw.io/28.1.2 Chrome/138.0.7204.243 Electron/37.4.0 Safari/537.36" version="28.1.2">
  <diagram name="Página-1" id="VSKNQLoooZ6ng_yzYzl7">
    <mxGraphModel dx="570" dy="336" grid="1" gridSize="10" guides="1" tooltips="1" connect="1" arrows="1" fold="1" page="1" pageScale="1" pageWidth="827" pageHeight="1169" math="0" shadow="0">
      <root>
        <mxCell id="0" />
        <mxCell id="1" parent="0" />
        <mxCell id="C9iITZ3nko9GXs_gDSJu-8" style="edgeStyle=orthogonalEdgeStyle;rounded=0;orthogonalLoop=1;jettySize=auto;html=1;exitX=0.5;exitY=0;exitDx=0;exitDy=0;entryX=0.5;entryY=1;entryDx=0;entryDy=0;" edge="1" parent="1" source="C9iITZ3nko9GXs_gDSJu-3" target="C9iITZ3nko9GXs_gDSJu-4">
          <mxGeometry relative="1" as="geometry" />
        </mxCell>
        <mxCell id="C9iITZ3nko9GXs_gDSJu-9" style="edgeStyle=orthogonalEdgeStyle;rounded=0;orthogonalLoop=1;jettySize=auto;html=1;exitX=1;exitY=0.25;exitDx=0;exitDy=0;entryX=0.5;entryY=1;entryDx=0;entryDy=0;" edge="1" parent="1" source="C9iITZ3nko9GXs_gDSJu-3" target="C9iITZ3nko9GXs_gDSJu-6">
          <mxGeometry relative="1" as="geometry" />
        </mxCell>
        <mxCell id="C9iITZ3nko9GXs_gDSJu-10" style="edgeStyle=orthogonalEdgeStyle;rounded=0;orthogonalLoop=1;jettySize=auto;html=1;exitX=1;exitY=0.5;exitDx=0;exitDy=0;" edge="1" parent="1" source="C9iITZ3nko9GXs_gDSJu-3" target="C9iITZ3nko9GXs_gDSJu-11">
          <mxGeometry relative="1" as="geometry">
            <mxPoint x="270" y="389.8571428571429" as="targetPoint" />
          </mxGeometry>
        </mxCell>
        <mxCell id="C9iITZ3nko9GXs_gDSJu-28" style="edgeStyle=orthogonalEdgeStyle;rounded=0;orthogonalLoop=1;jettySize=auto;html=1;exitX=0.5;exitY=1;exitDx=0;exitDy=0;" edge="1" parent="1" source="C9iITZ3nko9GXs_gDSJu-3" target="C9iITZ3nko9GXs_gDSJu-29">
          <mxGeometry relative="1" as="geometry">
            <mxPoint x="139.8571428571429" y="470" as="targetPoint" />
          </mxGeometry>
        </mxCell>
        <mxCell id="C9iITZ3nko9GXs_gDSJu-3" value="Sucursal" style="whiteSpace=wrap;html=1;align=center;" vertex="1" parent="1">
          <mxGeometry x="90" y="370" width="100" height="40" as="geometry" />
        </mxCell>
        <mxCell id="C9iITZ3nko9GXs_gDSJu-4" value="Domicilio" style="ellipse;whiteSpace=wrap;html=1;align=center;" vertex="1" parent="1">
          <mxGeometry x="110" y="280" width="60" height="40" as="geometry" />
        </mxCell>
        <mxCell id="C9iITZ3nko9GXs_gDSJu-5" value="Cod_sucursal" style="ellipse;whiteSpace=wrap;html=1;align=center;fontStyle=4;" vertex="1" parent="1">
          <mxGeometry x="30" y="290" width="80" height="40" as="geometry" />
        </mxCell>
        <mxCell id="C9iITZ3nko9GXs_gDSJu-6" value="Teléfono" style="ellipse;whiteSpace=wrap;html=1;align=center;" vertex="1" parent="1">
          <mxGeometry x="180" y="290" width="60" height="40" as="geometry" />
        </mxCell>
        <mxCell id="C9iITZ3nko9GXs_gDSJu-7" style="edgeStyle=orthogonalEdgeStyle;rounded=0;orthogonalLoop=1;jettySize=auto;html=1;exitX=0;exitY=0.25;exitDx=0;exitDy=0;entryX=0.43;entryY=0.996;entryDx=0;entryDy=0;entryPerimeter=0;" edge="1" parent="1" source="C9iITZ3nko9GXs_gDSJu-3" target="C9iITZ3nko9GXs_gDSJu-5">
          <mxGeometry relative="1" as="geometry" />
        </mxCell>
        <mxCell id="C9iITZ3nko9GXs_gDSJu-11" value="Trabaja" style="shape=rhombus;perimeter=rhombusPerimeter;whiteSpace=wrap;html=1;align=center;" vertex="1" parent="1">
          <mxGeometry x="369" y="370" width="76" height="38" as="geometry" />
        </mxCell>
        <mxCell id="C9iITZ3nko9GXs_gDSJu-12" value="Empleados" style="whiteSpace=wrap;html=1;align=center;" vertex="1" parent="1">
          <mxGeometry x="520" y="369" width="100" height="40" as="geometry" />
        </mxCell>
        <mxCell id="C9iITZ3nko9GXs_gDSJu-14" value="(1:1)" style="text;html=1;align=center;verticalAlign=middle;resizable=0;points=[];autosize=1;strokeColor=none;fillColor=none;" vertex="1" parent="1">
          <mxGeometry x="210" y="360" width="50" height="30" as="geometry" />
        </mxCell>
        <mxCell id="C9iITZ3nko9GXs_gDSJu-16" value="(1:1)" style="text;html=1;align=center;verticalAlign=middle;resizable=0;points=[];autosize=1;strokeColor=none;fillColor=none;" vertex="1" parent="1">
          <mxGeometry x="580" y="100" width="50" height="30" as="geometry" />
        </mxCell>
        <mxCell id="C9iITZ3nko9GXs_gDSJu-18" value="1:N" style="text;html=1;align=center;verticalAlign=middle;resizable=0;points=[];autosize=1;strokeColor=none;fillColor=none;" vertex="1" parent="1">
          <mxGeometry x="322" y="415" width="40" height="30" as="geometry" />
        </mxCell>
        <mxCell id="C9iITZ3nko9GXs_gDSJu-19" value="Teléfono" style="ellipse;whiteSpace=wrap;html=1;align=center;" vertex="1" parent="1">
          <mxGeometry x="710" y="44" width="47" height="30" as="geometry" />
        </mxCell>
        <mxCell id="C9iITZ3nko9GXs_gDSJu-21" value="Dirección" style="ellipse;whiteSpace=wrap;html=1;align=center;" vertex="1" parent="1">
          <mxGeometry x="650" y="21.5" width="60" height="28.5" as="geometry" />
        </mxCell>
        <mxCell id="C9iITZ3nko9GXs_gDSJu-22" value="Nombre" style="ellipse;whiteSpace=wrap;html=1;align=center;" vertex="1" parent="1">
          <mxGeometry x="773" y="40" width="47" height="30" as="geometry" />
        </mxCell>
        <mxCell id="C9iITZ3nko9GXs_gDSJu-29" value="Publica" style="shape=rhombus;perimeter=rhombusPerimeter;whiteSpace=wrap;html=1;align=center;" vertex="1" parent="1">
          <mxGeometry x="100" y="480" width="80" height="40" as="geometry" />
        </mxCell>
        <mxCell id="C9iITZ3nko9GXs_gDSJu-33" value="" style="edgeStyle=orthogonalEdgeStyle;rounded=0;orthogonalLoop=1;jettySize=auto;html=1;" edge="1" parent="1" source="C9iITZ3nko9GXs_gDSJu-31" target="C9iITZ3nko9GXs_gDSJu-29">
          <mxGeometry relative="1" as="geometry" />
        </mxCell>
        <mxCell id="C9iITZ3nko9GXs_gDSJu-44" style="edgeStyle=orthogonalEdgeStyle;rounded=0;orthogonalLoop=1;jettySize=auto;html=1;exitX=0.5;exitY=1;exitDx=0;exitDy=0;entryX=0.5;entryY=0;entryDx=0;entryDy=0;" edge="1" parent="1" source="C9iITZ3nko9GXs_gDSJu-31" target="C9iITZ3nko9GXs_gDSJu-37">
          <mxGeometry relative="1" as="geometry" />
        </mxCell>
        <mxCell id="C9iITZ3nko9GXs_gDSJu-45" style="edgeStyle=orthogonalEdgeStyle;rounded=0;orthogonalLoop=1;jettySize=auto;html=1;exitX=1;exitY=1;exitDx=0;exitDy=0;" edge="1" parent="1" source="C9iITZ3nko9GXs_gDSJu-31" target="C9iITZ3nko9GXs_gDSJu-38">
          <mxGeometry relative="1" as="geometry" />
        </mxCell>
        <mxCell id="C9iITZ3nko9GXs_gDSJu-46" style="edgeStyle=orthogonalEdgeStyle;rounded=0;orthogonalLoop=1;jettySize=auto;html=1;exitX=1;exitY=0.5;exitDx=0;exitDy=0;entryX=0;entryY=0.5;entryDx=0;entryDy=0;" edge="1" parent="1" source="C9iITZ3nko9GXs_gDSJu-31" target="C9iITZ3nko9GXs_gDSJu-67">
          <mxGeometry relative="1" as="geometry">
            <mxPoint x="280" y="605" as="targetPoint" />
          </mxGeometry>
        </mxCell>
        <mxCell id="C9iITZ3nko9GXs_gDSJu-132" style="edgeStyle=orthogonalEdgeStyle;rounded=0;orthogonalLoop=1;jettySize=auto;html=1;exitX=0;exitY=0.25;exitDx=0;exitDy=0;entryX=0.5;entryY=1;entryDx=0;entryDy=0;" edge="1" parent="1" source="C9iITZ3nko9GXs_gDSJu-31" target="C9iITZ3nko9GXs_gDSJu-39">
          <mxGeometry relative="1" as="geometry" />
        </mxCell>
        <mxCell id="C9iITZ3nko9GXs_gDSJu-133" style="edgeStyle=orthogonalEdgeStyle;rounded=0;orthogonalLoop=1;jettySize=auto;html=1;exitX=0;exitY=0.5;exitDx=0;exitDy=0;entryX=0.5;entryY=0;entryDx=0;entryDy=0;" edge="1" parent="1" source="C9iITZ3nko9GXs_gDSJu-31" target="C9iITZ3nko9GXs_gDSJu-36">
          <mxGeometry relative="1" as="geometry" />
        </mxCell>
        <mxCell id="C9iITZ3nko9GXs_gDSJu-31" value="Revista" style="whiteSpace=wrap;html=1;align=center;" vertex="1" parent="1">
          <mxGeometry x="90" y="585" width="100" height="40" as="geometry" />
        </mxCell>
        <mxCell id="C9iITZ3nko9GXs_gDSJu-36" value="Título" style="ellipse;whiteSpace=wrap;html=1;align=center;" vertex="1" parent="1">
          <mxGeometry x="5" y="625" width="60" height="40" as="geometry" />
        </mxCell>
        <mxCell id="C9iITZ3nko9GXs_gDSJu-37" value="Periodicidad" style="ellipse;whiteSpace=wrap;html=1;align=center;" vertex="1" parent="1">
          <mxGeometry x="65" y="640" width="80" height="40" as="geometry" />
        </mxCell>
        <mxCell id="C9iITZ3nko9GXs_gDSJu-38" value="Tipo" style="ellipse;whiteSpace=wrap;html=1;align=center;" vertex="1" parent="1">
          <mxGeometry x="170" y="650" width="40" height="40" as="geometry" />
        </mxCell>
        <mxCell id="C9iITZ3nko9GXs_gDSJu-39" value="Num_registro" style="ellipse;whiteSpace=wrap;html=1;align=center;fontStyle=4;" vertex="1" parent="1">
          <mxGeometry x="15" y="520" width="80" height="40" as="geometry" />
        </mxCell>
        <mxCell id="C9iITZ3nko9GXs_gDSJu-68" value="" style="edgeStyle=orthogonalEdgeStyle;rounded=0;orthogonalLoop=1;jettySize=auto;html=1;" edge="1" parent="1" source="C9iITZ3nko9GXs_gDSJu-48" target="C9iITZ3nko9GXs_gDSJu-67">
          <mxGeometry relative="1" as="geometry" />
        </mxCell>
        <mxCell id="C9iITZ3nko9GXs_gDSJu-137" style="edgeStyle=orthogonalEdgeStyle;rounded=0;orthogonalLoop=1;jettySize=auto;html=1;exitX=0;exitY=0.5;exitDx=0;exitDy=0;entryX=0.5;entryY=0;entryDx=0;entryDy=0;" edge="1" parent="1" source="C9iITZ3nko9GXs_gDSJu-48" target="C9iITZ3nko9GXs_gDSJu-50">
          <mxGeometry relative="1" as="geometry" />
        </mxCell>
        <mxCell id="C9iITZ3nko9GXs_gDSJu-48" value="Periodista" style="whiteSpace=wrap;html=1;" vertex="1" parent="1">
          <mxGeometry x="700" y="450" width="100" height="40" as="geometry" />
        </mxCell>
        <mxCell id="C9iITZ3nko9GXs_gDSJu-50" value="Especialidad" style="ellipse;whiteSpace=wrap;html=1;align=center;" vertex="1" parent="1">
          <mxGeometry x="445" y="500" width="70" height="32" as="geometry" />
        </mxCell>
        <mxCell id="C9iITZ3nko9GXs_gDSJu-61" value="(1:n)" style="text;html=1;align=center;verticalAlign=middle;resizable=0;points=[];autosize=1;strokeColor=none;fillColor=none;" vertex="1" parent="1">
          <mxGeometry x="60" y="550" width="50" height="30" as="geometry" />
        </mxCell>
        <mxCell id="C9iITZ3nko9GXs_gDSJu-62" value="(1:1)" style="text;html=1;align=center;verticalAlign=middle;resizable=0;points=[];autosize=1;strokeColor=none;fillColor=none;" vertex="1" parent="1">
          <mxGeometry x="60" y="410" width="50" height="30" as="geometry" />
        </mxCell>
        <mxCell id="C9iITZ3nko9GXs_gDSJu-63" value="1:N" style="text;html=1;align=center;verticalAlign=middle;resizable=0;points=[];autosize=1;strokeColor=none;fillColor=none;" vertex="1" parent="1">
          <mxGeometry x="180" y="485" width="40" height="30" as="geometry" />
        </mxCell>
        <mxCell id="C9iITZ3nko9GXs_gDSJu-70" style="edgeStyle=orthogonalEdgeStyle;rounded=0;orthogonalLoop=1;jettySize=auto;html=1;exitX=0.25;exitY=1;exitDx=0;exitDy=0;entryX=0;entryY=0.5;entryDx=0;entryDy=0;" edge="1" parent="1" source="C9iITZ3nko9GXs_gDSJu-64" target="C9iITZ3nko9GXs_gDSJu-73">
          <mxGeometry relative="1" as="geometry">
            <mxPoint x="454.9310344827586" y="670" as="targetPoint" />
          </mxGeometry>
        </mxCell>
        <mxCell id="C9iITZ3nko9GXs_gDSJu-71" style="edgeStyle=orthogonalEdgeStyle;rounded=0;orthogonalLoop=1;jettySize=auto;html=1;exitX=0.5;exitY=1;exitDx=0;exitDy=0;" edge="1" parent="1" source="C9iITZ3nko9GXs_gDSJu-64" target="C9iITZ3nko9GXs_gDSJu-74">
          <mxGeometry relative="1" as="geometry">
            <mxPoint x="479.7586206896551" y="690" as="targetPoint" />
          </mxGeometry>
        </mxCell>
        <mxCell id="C9iITZ3nko9GXs_gDSJu-130" style="edgeStyle=orthogonalEdgeStyle;rounded=0;orthogonalLoop=1;jettySize=auto;html=1;exitX=0.75;exitY=1;exitDx=0;exitDy=0;entryX=0.5;entryY=0;entryDx=0;entryDy=0;" edge="1" parent="1" source="C9iITZ3nko9GXs_gDSJu-64" target="C9iITZ3nko9GXs_gDSJu-75">
          <mxGeometry relative="1" as="geometry" />
        </mxCell>
        <mxCell id="C9iITZ3nko9GXs_gDSJu-64" value="Fasciculo" style="shape=ext;margin=3;double=1;whiteSpace=wrap;html=1;align=center;" vertex="1" parent="1">
          <mxGeometry x="80" y="760" width="100" height="40" as="geometry" />
        </mxCell>
        <mxCell id="C9iITZ3nko9GXs_gDSJu-67" value="Escribe" style="shape=rhombus;perimeter=rhombusPerimeter;whiteSpace=wrap;html=1;align=center;" vertex="1" parent="1">
          <mxGeometry x="530" y="575" width="100" height="60" as="geometry" />
        </mxCell>
        <mxCell id="C9iITZ3nko9GXs_gDSJu-73" value="Fecha" style="ellipse;whiteSpace=wrap;html=1;align=center;direction=south;" vertex="1" parent="1">
          <mxGeometry x="10" y="800" width="40" height="40" as="geometry" />
        </mxCell>
        <mxCell id="C9iITZ3nko9GXs_gDSJu-74" value="Num_pagina" style="ellipse;whiteSpace=wrap;html=1;align=center;" vertex="1" parent="1">
          <mxGeometry x="5" y="850" width="100" height="40" as="geometry" />
        </mxCell>
        <mxCell id="C9iITZ3nko9GXs_gDSJu-75" value="Num_ejemplares_vendidos" style="ellipse;whiteSpace=wrap;html=1;align=center;" vertex="1" parent="1">
          <mxGeometry x="115" y="850" width="160" height="40" as="geometry" />
        </mxCell>
        <mxCell id="C9iITZ3nko9GXs_gDSJu-76" value="(1:n)" style="text;html=1;align=center;verticalAlign=middle;resizable=0;points=[];autosize=1;strokeColor=none;fillColor=none;" vertex="1" parent="1">
          <mxGeometry x="150" y="730" width="50" height="30" as="geometry" />
        </mxCell>
        <mxCell id="C9iITZ3nko9GXs_gDSJu-77" value="(1:1)" style="text;html=1;align=center;verticalAlign=middle;resizable=0;points=[];autosize=1;strokeColor=none;fillColor=none;" vertex="1" parent="1">
          <mxGeometry x="180" y="610" width="50" height="30" as="geometry" />
        </mxCell>
        <mxCell id="C9iITZ3nko9GXs_gDSJu-78" value="1:N" style="text;html=1;align=center;verticalAlign=middle;resizable=0;points=[];autosize=1;strokeColor=none;fillColor=none;" vertex="1" parent="1">
          <mxGeometry x="170" y="700" width="40" height="30" as="geometry" />
        </mxCell>
        <mxCell id="C9iITZ3nko9GXs_gDSJu-101" style="edgeStyle=orthogonalEdgeStyle;rounded=0;orthogonalLoop=1;jettySize=auto;html=1;exitX=0;exitY=0;exitDx=0;exitDy=0;entryX=0.5;entryY=1;entryDx=0;entryDy=0;" edge="1" parent="1" source="C9iITZ3nko9GXs_gDSJu-79" target="C9iITZ3nko9GXs_gDSJu-98">
          <mxGeometry relative="1" as="geometry" />
        </mxCell>
        <mxCell id="C9iITZ3nko9GXs_gDSJu-102" style="edgeStyle=orthogonalEdgeStyle;rounded=0;orthogonalLoop=1;jettySize=auto;html=1;exitX=0.25;exitY=0;exitDx=0;exitDy=0;entryX=0.5;entryY=1;entryDx=0;entryDy=0;" edge="1" parent="1" source="C9iITZ3nko9GXs_gDSJu-79" target="C9iITZ3nko9GXs_gDSJu-21">
          <mxGeometry relative="1" as="geometry" />
        </mxCell>
        <mxCell id="C9iITZ3nko9GXs_gDSJu-79" value="Persona" style="whiteSpace=wrap;html=1;align=center;" vertex="1" parent="1">
          <mxGeometry x="630" y="110" width="100" height="40" as="geometry" />
        </mxCell>
        <mxCell id="C9iITZ3nko9GXs_gDSJu-141" style="edgeStyle=orthogonalEdgeStyle;rounded=0;orthogonalLoop=1;jettySize=auto;html=1;exitX=0.5;exitY=0;exitDx=0;exitDy=0;entryX=0.5;entryY=0;entryDx=0;entryDy=0;" edge="1" parent="1" source="C9iITZ3nko9GXs_gDSJu-82" target="C9iITZ3nko9GXs_gDSJu-48">
          <mxGeometry relative="1" as="geometry" />
        </mxCell>
        <mxCell id="C9iITZ3nko9GXs_gDSJu-142" style="edgeStyle=orthogonalEdgeStyle;rounded=0;orthogonalLoop=1;jettySize=auto;html=1;exitX=0.5;exitY=1;exitDx=0;exitDy=0;entryX=0.5;entryY=0;entryDx=0;entryDy=0;" edge="1" parent="1" source="C9iITZ3nko9GXs_gDSJu-82" target="C9iITZ3nko9GXs_gDSJu-12">
          <mxGeometry relative="1" as="geometry">
            <Array as="points">
              <mxPoint x="665" y="340" />
              <mxPoint x="570" y="340" />
            </Array>
          </mxGeometry>
        </mxCell>
        <mxCell id="C9iITZ3nko9GXs_gDSJu-82" value="" style="triangle;whiteSpace=wrap;html=1;rotation=90;" vertex="1" parent="1">
          <mxGeometry x="660" y="190" width="40" height="60" as="geometry" />
        </mxCell>
        <mxCell id="C9iITZ3nko9GXs_gDSJu-98" value="DNI" style="ellipse;whiteSpace=wrap;html=1;align=center;fontStyle=4;" vertex="1" parent="1">
          <mxGeometry x="610" y="50" width="40" height="24" as="geometry" />
        </mxCell>
        <mxCell id="C9iITZ3nko9GXs_gDSJu-103" style="edgeStyle=orthogonalEdgeStyle;rounded=0;orthogonalLoop=1;jettySize=auto;html=1;exitX=0.5;exitY=0;exitDx=0;exitDy=0;entryX=0.427;entryY=0.994;entryDx=0;entryDy=0;entryPerimeter=0;" edge="1" parent="1" source="C9iITZ3nko9GXs_gDSJu-79" target="C9iITZ3nko9GXs_gDSJu-19">
          <mxGeometry relative="1" as="geometry" />
        </mxCell>
        <mxCell id="C9iITZ3nko9GXs_gDSJu-104" style="edgeStyle=orthogonalEdgeStyle;rounded=0;orthogonalLoop=1;jettySize=auto;html=1;exitX=0.75;exitY=0;exitDx=0;exitDy=0;entryX=0.437;entryY=1.032;entryDx=0;entryDy=0;entryPerimeter=0;" edge="1" parent="1" source="C9iITZ3nko9GXs_gDSJu-79" target="C9iITZ3nko9GXs_gDSJu-22">
          <mxGeometry relative="1" as="geometry" />
        </mxCell>
        <mxCell id="C9iITZ3nko9GXs_gDSJu-113" value="" style="endArrow=none;html=1;rounded=0;exitX=0.5;exitY=1;exitDx=0;exitDy=0;entryX=0;entryY=0.5;entryDx=0;entryDy=0;" edge="1" parent="1" source="C9iITZ3nko9GXs_gDSJu-79" target="C9iITZ3nko9GXs_gDSJu-82">
          <mxGeometry relative="1" as="geometry">
            <mxPoint x="680" y="150" as="sourcePoint" />
            <mxPoint x="681.4644660940671" y="171.4644660940673" as="targetPoint" />
          </mxGeometry>
        </mxCell>
        <mxCell id="C9iITZ3nko9GXs_gDSJu-115" value="(1:1&lt;span style=&quot;color: rgba(0, 0, 0, 0); font-family: monospace; font-size: 0px; text-align: start;&quot;&gt;%3CmxGraphModel%3E%3Croot%3E%3CmxCell%20id%3D%220%22%2F%3E%3CmxCell%20id%3D%221%22%20parent%3D%220%22%2F%3E%3CmxCell%20id%3D%222%22%20value%3D%22(1%3An)%22%20style%3D%22text%3Bhtml%3D1%3Balign%3Dcenter%3BverticalAlign%3Dmiddle%3Bresizable%3D0%3Bpoints%3D%5B%5D%3Bautosize%3D1%3BstrokeColor%3Dnone%3BfillColor%3Dnone%3B%22%20vertex%3D%221%22%20parent%3D%221%22%3E%3CmxGeometry%20x%3D%22580%22%20y%3D%22100%22%20width%3D%2250%22%20height%3D%2230%22%20as%3D%22geometry%22%2F%3E%3C%2FmxCell%3E%3C%2Froot%3E%3C%2FmxGraphModel%3E&lt;/span&gt;)" style="text;html=1;align=center;verticalAlign=middle;resizable=0;points=[];autosize=1;strokeColor=none;fillColor=none;" vertex="1" parent="1">
          <mxGeometry x="590" y="339" width="50" height="30" as="geometry" />
        </mxCell>
        <mxCell id="C9iITZ3nko9GXs_gDSJu-116" value="(0:1&lt;span style=&quot;color: rgba(0, 0, 0, 0); font-family: monospace; font-size: 0px; text-align: start;&quot;&gt;%3CmxGraphModel%3E%3Croot%3E%3CmxCell%20id%3D%220%22%2F%3E%3CmxCell%20id%3D%221%22%20parent%3D%220%22%2F%3E%3CmxCell%20id%3D%222%22%20value%3D%22(1%3An)%22%20style%3D%22text%3Bhtml%3D1%3Balign%3Dcenter%3BverticalAlign%3Dmiddle%3Bresizable%3D0%3Bpoints%3D%5B%5D%3Bautosize%3D1%3BstrokeColor%3Dnone%3BfillColor%3Dnone%3B%22%20vertex%3D%221%22%20parent%3D%221%22%3E%3CmxGeometry%20x%3D%22580%22%20y%3D%22100%22%20width%3D%2250%22%20height%3D%2230%22%20as%3D%22geometry%22%2F%3E%3C%2FmxCell%3E%3C%2Froot%3E%3C%2FmxGraphModel%3E&lt;/span&gt;)" style="text;html=1;align=center;verticalAlign=middle;resizable=0;points=[];autosize=1;strokeColor=none;fillColor=none;" vertex="1" parent="1">
          <mxGeometry x="757" y="430" width="50" height="30" as="geometry" />
        </mxCell>
        <mxCell id="C9iITZ3nko9GXs_gDSJu-117" value="(1:1&lt;span style=&quot;color: rgba(0, 0, 0, 0); font-family: monospace; font-size: 0px; text-align: start;&quot;&gt;%3CmxGraphModel%3E%3Croot%3E%3CmxCell%20id%3D%220%22%2F%3E%3CmxCell%20id%3D%221%22%20parent%3D%220%22%2F%3E%3CmxCell%20id%3D%222%22%20value%3D%22(1%3An)%22%20style%3D%22text%3Bhtml%3D1%3Balign%3Dcenter%3BverticalAlign%3Dmiddle%3Bresizable%3D0%3Bpoints%3D%5B%5D%3Bautosize%3D1%3BstrokeColor%3Dnone%3BfillColor%3Dnone%3B%22%20vertex%3D%221%22%20parent%3D%221%22%3E%3CmxGeometry%20x%3D%22580%22%20y%3D%22100%22%20width%3D%2250%22%20height%3D%2230%22%20as%3D%22geometry%22%2F%3E%3C%2FmxCell%3E%3C%2Froot%3E%3C%2FmxGraphModel%3E&lt;/span&gt;)" style="text;html=1;align=center;verticalAlign=middle;resizable=0;points=[];autosize=1;strokeColor=none;fillColor=none;" vertex="1" parent="1">
          <mxGeometry x="680" y="150" width="50" height="30" as="geometry" />
        </mxCell>
        <mxCell id="C9iITZ3nko9GXs_gDSJu-118" value="" style="ellipse;whiteSpace=wrap;html=1;aspect=fixed;" vertex="1" parent="1">
          <mxGeometry x="740" y="200" width="10" height="10" as="geometry" />
        </mxCell>
        <mxCell id="C9iITZ3nko9GXs_gDSJu-120" value="" style="line;strokeWidth=1;rotatable=0;dashed=0;labelPosition=right;align=left;verticalAlign=middle;spacingTop=0;spacingLeft=6;points=[];portConstraint=eastwest;" vertex="1" parent="1">
          <mxGeometry x="710" y="200" width="30" height="10" as="geometry" />
        </mxCell>
        <mxCell id="C9iITZ3nko9GXs_gDSJu-122" value="Tipo" style="text;html=1;align=center;verticalAlign=middle;resizable=0;points=[];autosize=1;strokeColor=none;fillColor=none;" vertex="1" parent="1">
          <mxGeometry x="740" y="190" width="50" height="30" as="geometry" />
        </mxCell>
        <mxCell id="C9iITZ3nko9GXs_gDSJu-123" value="Especialización total y exclusiva" style="text;html=1;align=center;verticalAlign=middle;resizable=0;points=[];autosize=1;strokeColor=none;fillColor=none;" vertex="1" parent="1">
          <mxGeometry x="620" y="500" width="190" height="30" as="geometry" />
        </mxCell>
        <mxCell id="C9iITZ3nko9GXs_gDSJu-135" style="edgeStyle=orthogonalEdgeStyle;rounded=0;orthogonalLoop=1;jettySize=auto;html=1;exitX=0.5;exitY=1;exitDx=0;exitDy=0;entryX=0.5;entryY=0;entryDx=0;entryDy=0;" edge="1" parent="1" source="C9iITZ3nko9GXs_gDSJu-131" target="C9iITZ3nko9GXs_gDSJu-64">
          <mxGeometry relative="1" as="geometry" />
        </mxCell>
        <mxCell id="C9iITZ3nko9GXs_gDSJu-131" value="Pertenece" style="shape=rhombus;perimeter=rhombusPerimeter;whiteSpace=wrap;html=1;align=center;" vertex="1" parent="1">
          <mxGeometry x="110" y="690" width="70" height="50" as="geometry" />
        </mxCell>
        <mxCell id="C9iITZ3nko9GXs_gDSJu-134" style="edgeStyle=orthogonalEdgeStyle;rounded=0;orthogonalLoop=1;jettySize=auto;html=1;exitX=0.75;exitY=1;exitDx=0;exitDy=0;entryX=0.533;entryY=0.013;entryDx=0;entryDy=0;entryPerimeter=0;" edge="1" parent="1" source="C9iITZ3nko9GXs_gDSJu-31" target="C9iITZ3nko9GXs_gDSJu-131">
          <mxGeometry relative="1" as="geometry" />
        </mxCell>
        <mxCell id="C9iITZ3nko9GXs_gDSJu-138" value="(1:1)" style="text;html=1;align=center;verticalAlign=middle;resizable=0;points=[];autosize=1;strokeColor=none;fillColor=none;" vertex="1" parent="1">
          <mxGeometry x="530" y="500" width="50" height="30" as="geometry" />
        </mxCell>
        <mxCell id="C9iITZ3nko9GXs_gDSJu-139" value="(1:n)" style="text;html=1;align=center;verticalAlign=middle;resizable=0;points=[];autosize=1;strokeColor=none;fillColor=none;" vertex="1" parent="1">
          <mxGeometry x="180" y="575" width="50" height="30" as="geometry" />
        </mxCell>
        <mxCell id="C9iITZ3nko9GXs_gDSJu-140" value="1:N" style="text;html=1;align=center;verticalAlign=middle;resizable=0;points=[];autosize=1;strokeColor=none;fillColor=none;" vertex="1" parent="1">
          <mxGeometry x="520" y="555" width="40" height="30" as="geometry" />
        </mxCell>
        <mxCell id="C9iITZ3nko9GXs_gDSJu-143" style="edgeStyle=orthogonalEdgeStyle;rounded=0;orthogonalLoop=1;jettySize=auto;html=1;exitX=0;exitY=0.5;exitDx=0;exitDy=0;entryX=0.934;entryY=0.499;entryDx=0;entryDy=0;entryPerimeter=0;" edge="1" parent="1" source="C9iITZ3nko9GXs_gDSJu-12" target="C9iITZ3nko9GXs_gDSJu-11">
          <mxGeometry relative="1" as="geometry" />
        </mxCell>
        <mxCell id="C9iITZ3nko9GXs_gDSJu-144" value="1:N" style="text;html=1;align=center;verticalAlign=middle;resizable=0;points=[];autosize=1;strokeColor=none;fillColor=none;" vertex="1" parent="1">
          <mxGeometry x="387" y="340" width="40" height="30" as="geometry" />
        </mxCell>
        <mxCell id="C9iITZ3nko9GXs_gDSJu-146" value="(1:n&lt;span style=&quot;color: rgba(0, 0, 0, 0); font-family: monospace; font-size: 0px; text-align: start;&quot;&gt;%3CmxGraphModel%3E%3Croot%3E%3CmxCell%20id%3D%220%22%2F%3E%3CmxCell%20id%3D%221%22%20parent%3D%220%22%2F%3E%3CmxCell%20id%3D%222%22%20value%3D%22(1%3An)%22%20style%3D%22text%3Bhtml%3D1%3Balign%3Dcenter%3BverticalAlign%3Dmiddle%3Bresizable%3D0%3Bpoints%3D%5B%5D%3Bautosize%3D1%3BstrokeColor%3Dnone%3BfillColor%3Dnone%3B%22%20vertex%3D%221%22%20parent%3D%221%22%3E%3CmxGeometry%20x%3D%22580%22%20y%3D%22100%22%20width%3D%2250%22%20height%3D%2230%22%20as%3D%22geometry%22%2F%3E%3C%2FmxCell%3E%3C%2Froot%3E%3C%2FmxGraphModel%3E&lt;/span&gt;)" style="text;html=1;align=center;verticalAlign=middle;resizable=0;points=[];autosize=1;strokeColor=none;fillColor=none;" vertex="1" parent="1">
          <mxGeometry x="500" y="339" width="50" height="30" as="geometry" />
        </mxCell>
        <mxCell id="C9iITZ3nko9GXs_gDSJu-147" value="Es un" style="text;html=1;align=center;verticalAlign=middle;resizable=0;points=[];autosize=1;strokeColor=none;fillColor=none;" vertex="1" parent="1">
          <mxGeometry x="655" y="200" width="50" height="30" as="geometry" />
        </mxCell>
        <mxCell id="C9iITZ3nko9GXs_gDSJu-148" value="" style="curved=1;endArrow=none;html=1;rounded=0;" edge="1" parent="1">
          <mxGeometry width="50" height="50" relative="1" as="geometry">
            <mxPoint x="620" y="280" as="sourcePoint" />
            <mxPoint x="750" y="290" as="targetPoint" />
            <Array as="points">
              <mxPoint x="667" y="340" />
            </Array>
          </mxGeometry>
        </mxCell>
      </root>
    </mxGraphModel>
  </diagram>
</mxfile>
